<svg width="33" height="32" viewBox="0 0 33 32" fill="none" xmlns="http://www.w3.org/2000/svg">
<path d="M11.194 2.71973H22.2479C26.4589 2.71973 29.8804 6.14117 29.8804 10.3522V21.4061C29.8804 23.4304 29.0762 25.3717 27.6449 26.8031C26.2135 28.2344 24.2721 29.0386 22.2479 29.0386H11.194C6.98297 29.0386 3.56152 25.6171 3.56152 21.4061V10.3522C3.56152 8.32793 4.36566 6.38659 5.79702 4.95522C7.22838 3.52386 9.16973 2.71973 11.194 2.71973ZM10.9308 5.35161C9.67436 5.35161 8.46939 5.85073 7.58096 6.73916C6.69252 7.62759 6.19341 8.83256 6.19341 10.089V21.6693C6.19341 24.288 8.31207 26.4067 10.9308 26.4067H22.5111C23.7675 26.4067 24.9725 25.9076 25.8609 25.0191C26.7494 24.1307 27.2485 22.9257 27.2485 21.6693V10.089C27.2485 7.47027 25.1298 5.35161 22.5111 5.35161H10.9308ZM23.6296 7.32552C24.0659 7.32552 24.4843 7.49883 24.7928 7.80731C25.1013 8.11579 25.2746 8.53419 25.2746 8.97045C25.2746 9.40671 25.1013 9.8251 24.7928 10.1336C24.4843 10.4421 24.0659 10.6154 23.6296 10.6154C23.1934 10.6154 22.775 10.4421 22.4665 10.1336C22.158 9.8251 21.9847 9.40671 21.9847 8.97045C21.9847 8.53419 22.158 8.11579 22.4665 7.80731C22.775 7.49883 23.1934 7.32552 23.6296 7.32552ZM16.7209 9.29943C18.466 9.29943 20.1396 9.99265 21.3735 11.2266C22.6074 12.4605 23.3006 14.1341 23.3006 15.8791C23.3006 17.6242 22.6074 19.2978 21.3735 20.5317C20.1396 21.7656 18.466 22.4588 16.7209 22.4588C14.9759 22.4588 13.3023 21.7656 12.0684 20.5317C10.8344 19.2978 10.1412 17.6242 10.1412 15.8791C10.1412 14.1341 10.8344 12.4605 12.0684 11.2266C13.3023 9.99265 14.9759 9.29943 16.7209 9.29943ZM16.7209 11.9313C15.6739 11.9313 14.6698 12.3472 13.9294 13.0876C13.189 13.828 12.7731 14.8321 12.7731 15.8791C12.7731 16.9262 13.189 17.9303 13.9294 18.6707C14.6698 19.411 15.6739 19.827 16.7209 19.827C17.768 19.827 18.7721 19.411 19.5125 18.6707C20.2528 17.9303 20.6688 16.9262 20.6688 15.8791C20.6688 14.8321 20.2528 13.828 19.5125 13.0876C18.7721 12.3472 17.768 11.9313 16.7209 11.9313Z" fill="#FAF9F9"/>
</svg>
