<svg width="32" height="32" viewBox="0 0 32 32" fill="none" xmlns="http://www.w3.org/2000/svg">
<path d="M27.6053 2.06152H4.54196C3.28174 2.06152 2.18066 2.96829 2.18066 4.2137V27.3282C2.18066 28.5804 3.28174 29.6963 4.54196 29.6963H27.5985C28.8655 29.6963 29.8154 28.573 29.8154 27.3282V4.2137C29.8228 2.96829 28.8655 2.06152 27.6053 2.06152ZM10.7468 25.0965H6.7879V12.7873H10.7468V25.0965ZM8.9043 10.9158H8.87593C7.60892 10.9158 6.78851 9.97259 6.78851 8.79195C6.78851 7.58971 7.63051 6.66876 8.92589 6.66876C10.2213 6.66876 11.0139 7.58293 11.0423 8.79195C11.0417 9.97259 10.2213 10.9158 8.9043 10.9158ZM25.2156 25.0965H21.2567V18.366C21.2567 16.7536 20.6805 15.6519 19.2482 15.6519C18.1539 15.6519 17.5062 16.3921 17.2182 17.1132C17.1102 17.3723 17.0812 17.7251 17.0812 18.0854V25.0965H13.1223V12.7873H17.0812V14.5003C17.6574 13.6798 18.5573 12.4992 20.6515 12.4992C23.2503 12.4992 25.2162 14.2122 25.2162 17.9053L25.2156 25.0965Z" fill="#FAF9F9"/>
</svg>
