<svg width="33" height="31" viewBox="0 0 33 31" fill="none" xmlns="http://www.w3.org/2000/svg">
<path d="M31.4417 6.65952C30.331 7.12907 29.1559 7.43842 27.9534 7.57779C29.2171 6.85781 30.1675 5.71398 30.6262 4.36085C29.4314 5.0406 28.1265 5.51755 26.7672 5.77126C26.1948 5.18761 25.5065 4.7233 24.7439 4.40655C23.9814 4.0898 23.1606 3.92723 22.3315 3.92872C18.9746 3.92872 16.258 6.53348 16.258 9.74443C16.2556 10.1911 16.3082 10.6364 16.4147 11.0708C14.0075 10.961 11.6505 10.3636 9.49424 9.31665C7.33803 8.26975 5.43015 6.79646 3.89266 4.99103C3.35327 5.87576 3.06802 6.88521 3.0667 7.91389C3.0667 9.93048 4.14804 11.713 5.78083 12.7573C4.81345 12.735 3.86589 12.4859 3.01859 12.0311V12.1031C3.01859 14.9239 5.11587 17.2706 7.89168 17.8048C7.3697 17.9402 6.8318 18.0088 6.29158 18.0088C5.90826 18.0095 5.52581 17.9733 5.1498 17.9008C5.92147 20.2115 8.16742 21.892 10.8279 21.94C8.66606 23.561 6.01191 24.4372 3.2826 24.4307C2.79814 24.43 2.31413 24.402 1.83301 24.3467C4.60955 26.0717 7.83706 26.9842 11.1314 26.9755C22.3185 26.9755 28.4302 18.1109 28.4302 10.4226C28.4302 10.1706 28.4235 9.91848 28.4111 9.6724C29.5974 8.8514 30.6236 7.83113 31.4417 6.65952Z" fill="#FAF9F9"/>
</svg>
