<svg width="99" height="107" viewBox="0 0 99 107" fill="none" xmlns="http://www.w3.org/2000/svg">
<path d="M60.2571 0L49.8049 18.1022L39.3544 0H60.2571Z" fill="white"/>
<path d="M28.3894 0L43.973 26.9897L31.649 48.4209L49.7722 106.027L0.457458 0H28.3894Z" fill="white"/>
<path d="M38.7573 46.7546L49.7992 28.2949L60.2648 47.0849L38.7573 46.7546Z" fill="white"/>
<path d="M49.6153 69.8457L38.8613 51.2168H60.3692L49.6153 69.8457Z" fill="white"/>
<path d="M49.8338 105.965L67.5563 48.4825L55.0252 26.9897L70.6087 0H98.5425L49.8338 105.965Z" fill="white"/>
<path d="M37.0492 68.7432L49.7303 83.1749L62.2406 66.9072L53.9146 94.4898L49.7303 107L46.101 96.0269L37.0492 68.7432Z" fill="white"/>
</svg>
