<svg width="33" height="32" viewBox="0 0 33 32" fill="none" xmlns="http://www.w3.org/2000/svg">
<path fill-rule="evenodd" clip-rule="evenodd" d="M26.1506 6.07726C24.8731 4.7992 23.3555 3.78642 21.6851 3.09724C20.0146 2.40806 18.2244 2.05609 16.4174 2.06159C8.83384 2.06159 2.66043 8.20415 2.65734 15.7556C2.65399 18.1601 3.28782 20.5227 4.49431 22.6026L2.54199 29.6964L9.83621 27.7921C11.8553 28.886 14.1155 29.4584 16.4118 29.4576H16.4174C24.0003 29.4576 30.1731 23.3145 30.1768 15.7636C30.1814 13.9628 29.8278 12.179 29.1366 10.5161C28.4454 8.85313 27.4304 7.34427 26.1506 6.07726ZM16.4174 27.1463H16.4124C14.3653 27.1469 12.3555 26.5991 10.5919 25.5598L10.1742 25.313L5.84583 26.4431L7.00118 22.243L6.72915 21.8112C5.58452 19.999 4.97808 17.899 4.98039 15.7556C4.98039 9.48041 10.1132 4.37476 16.4217 4.37476C19.4479 4.36936 22.3524 5.56623 24.4963 7.70212C26.6401 9.838 27.8478 12.738 27.8537 15.7642C27.8512 22.04 22.7209 27.1463 16.4174 27.1463ZM22.6901 18.6221C22.3465 18.4506 20.6545 17.6228 20.3411 17.5087C20.0278 17.3946 19.7964 17.3372 19.5676 17.6802C19.3387 18.0231 18.6793 18.7905 18.4789 19.0218C18.2784 19.2531 18.0779 19.2784 17.7343 19.1069C17.3907 18.9354 16.2823 18.5746 14.969 17.4088C13.9469 16.5014 13.2572 15.3812 13.0568 15.0388C12.8563 14.6965 13.0352 14.5108 13.2073 14.3406C13.3621 14.187 13.5509 13.9408 13.723 13.741C13.8951 13.5411 13.9524 13.398 14.0666 13.1698C14.1807 12.9415 14.1239 12.7417 14.0382 12.5708C13.9524 12.4 13.2647 10.7153 12.9784 10.03C12.699 9.36259 12.4159 9.45327 12.2049 9.44278C12.0044 9.43291 11.7731 9.43045 11.5455 9.43045C11.3715 9.43498 11.2003 9.47533 11.0426 9.54899C10.8849 9.62264 10.744 9.72802 10.6289 9.85854C10.3137 10.2015 9.42539 11.0305 9.42539 12.7133C9.42539 14.3961 10.6591 16.0245 10.8293 16.2528C10.9996 16.481 13.2535 19.9372 16.7023 21.4195C17.3427 21.6938 17.9971 21.9342 18.6627 22.14C19.4862 22.4003 20.2356 22.3639 20.8278 22.2757C21.4885 22.1776 22.8634 21.4479 23.149 20.6484C23.4346 19.849 23.4352 19.1643 23.3495 19.0218C23.2638 18.8793 23.0343 18.793 22.6901 18.6221Z" fill="#FAF9F9"/>
</svg>
