<svg width="146" height="46" viewBox="0 0 146 46" fill="none" xmlns="http://www.w3.org/2000/svg">
<path d="M1.26434 1.07468C1.60149 1.28541 1.93865 1.749 2.27581 2.46546L11.1262 23.7379L19.9765 45.0104L22.6949 37.1715L8.40785 2.40224C8.19712 1.93865 8.19712 1.53828 8.40785 1.20112C8.61857 0.863963 9.08216 0.695384 9.79862 0.695384V0H0V0.695384C0.505735 0.695384 0.927181 0.821818 1.26434 1.07468Z" fill="white"/>
<path d="M44.9444 0.0589615V0.493882C44.3017 0.467523 38.7738 0.566715 38.2383 0.909381C37.7028 1.25205 37.3145 1.71333 37.0735 2.29322L26.3494 28.1513H26.0281L14.7819 1.54199C14.5677 1.09389 14.3535 0.803944 14.1392 0.672149C13.925 0.513997 13.6573 0.43492 13.3359 0.43492V0H19.5615V0.43492C19.1063 0.43492 18.8118 0.540356 18.6779 0.751227C18.544 0.962099 18.544 1.21251 18.6779 1.50245L27.7552 23.2485L36.4309 2.21414C36.6183 1.76604 36.5781 1.35748 36.3104 0.988456C36.0694 0.619432 30.357 0.493882 29.634 0.493882V0.0589615H44.9444Z" fill="white"/>
<path d="M49.9933 30.4878C50.6141 30.4878 51.0642 30.3093 51.3436 29.9523C51.6385 29.5954 51.8325 29.1608 51.9256 28.6486H52.1817L51.9489 30.8603H40.8438V30.6275C40.999 30.6275 41.1154 30.5965 41.193 30.5344C41.2861 30.4568 41.3482 30.3714 41.3792 30.2783C41.4258 30.1852 41.4491 30.0765 41.4491 29.9523V15.4481C41.4491 15.324 41.4258 15.2153 41.3792 15.1222C41.3482 15.0446 41.2861 14.9747 41.193 14.9127C41.1154 14.8351 40.999 14.7962 40.8438 14.7962V14.5634H51.9489L52.1817 16.7752H51.9256C51.8325 16.2474 51.6385 15.8051 51.3436 15.4481C51.0642 15.0911 50.6141 14.9127 49.9933 14.9127H43.6142V22.223H48.6197C48.8525 22.2074 49.062 22.1454 49.2483 22.0367C49.4035 21.9436 49.5432 21.7961 49.6673 21.5944C49.7915 21.3926 49.8536 21.1055 49.8536 20.733H50.0864V24.0855H49.8536C49.8536 23.713 49.7915 23.4258 49.6673 23.2241C49.5432 23.0223 49.4035 22.8748 49.2483 22.7817C49.062 22.6731 48.8525 22.611 48.6197 22.5955H43.6142V30.4878H49.9933ZM65.5048 28.6486L65.272 30.8603H54.1668V30.6275C54.322 30.6275 54.4384 30.5965 54.516 30.5344C54.6092 30.4568 54.6712 30.3714 54.7023 30.2783C54.7488 30.1852 54.7721 30.0765 54.7721 29.9523V15.4714C54.7721 15.3472 54.7488 15.2308 54.7023 15.1222C54.6712 15.0446 54.6092 14.9747 54.516 14.9127C54.4384 14.8351 54.322 14.7962 54.1668 14.7962V14.5634H57.5193V14.7962C57.3796 14.7962 57.2632 14.8351 57.1701 14.9127C57.0925 14.9747 57.0382 15.0446 57.0071 15.1222C56.9606 15.2308 56.9373 15.3472 56.9373 15.4714V30.5111H63.3163C63.9372 30.5111 64.3873 30.3326 64.6667 29.9756C64.9615 29.6031 65.1556 29.1608 65.2487 28.6486H65.5048ZM79.1045 14.5402V14.7962C78.732 14.7807 78.3905 14.8739 78.0801 15.0756C77.7697 15.2774 77.5446 15.549 77.405 15.8905L71.1889 31.1164H71.0026L64.4839 15.4481C64.3597 15.1843 64.2355 15.0135 64.1114 14.9359C63.9872 14.8428 63.832 14.7962 63.6457 14.7962V14.5402H67.2543V14.7962C66.9905 14.7962 66.8197 14.8583 66.7421 14.9825C66.6645 15.1067 66.6645 15.2541 66.7421 15.4248L72.0037 28.2295L77.0325 15.8439C77.1411 15.5801 77.1178 15.3395 76.9626 15.1222C76.8229 14.9049 76.5435 14.7962 76.1245 14.7962V14.5402H79.1045ZM89.5305 30.4878C90.1513 30.4878 90.6014 30.3093 90.8808 29.9523C91.1757 29.5954 91.3697 29.1608 91.4628 28.6486H91.7189L91.4861 30.8603H80.381V30.6275C80.5362 30.6275 80.6526 30.5965 80.7302 30.5344C80.8233 30.4568 80.8854 30.3714 80.9164 30.2783C80.963 30.1852 80.9863 30.0765 80.9863 29.9523V15.4481C80.9863 15.324 80.963 15.2153 80.9164 15.1222C80.8854 15.0446 80.8233 14.9747 80.7302 14.9127C80.6526 14.8351 80.5362 14.7962 80.381 14.7962V14.5634H91.4861L91.7189 16.7752H91.4628C91.3697 16.2474 91.1757 15.8051 90.8808 15.4481C90.6014 15.0911 90.1513 14.9127 89.5305 14.9127H83.1514V22.223H88.1569C88.3897 22.2074 88.5992 22.1454 88.7855 22.0367C88.9407 21.9436 89.0804 21.7961 89.2045 21.5944C89.3287 21.3926 89.3908 21.1055 89.3908 20.733H89.6236V24.0855H89.3908C89.3908 23.713 89.3287 23.4258 89.2045 23.2241C89.0804 23.0223 88.9407 22.8748 88.7855 22.7817C88.5992 22.6731 88.3897 22.611 88.1569 22.5955H83.1514V30.4878H89.5305ZM105.531 16.7752H105.298C105.189 16.2474 104.995 15.8051 104.716 15.4481C104.437 15.0911 103.987 14.9127 103.366 14.9127H100.176V29.9523C100.176 30.0765 100.199 30.1852 100.246 30.2783C100.293 30.3714 100.355 30.4568 100.432 30.5344C100.51 30.5965 100.626 30.6275 100.782 30.6275V30.8603H97.429V30.6275C97.5842 30.6275 97.7006 30.5965 97.7782 30.5344C97.8558 30.4568 97.9102 30.3714 97.9412 30.2783C97.9878 30.1852 98.011 30.0765 98.011 29.9523V14.9127H94.8448C94.224 14.9127 93.7661 15.0911 93.4712 15.4481C93.1918 15.8051 93.0056 16.2474 92.9124 16.7752H92.6564L92.8892 14.5402H105.321L105.531 16.7752ZM118.672 16.7752H118.439C118.331 16.2474 118.137 15.8051 117.857 15.4481C117.578 15.0911 117.128 14.9127 116.507 14.9127H113.317V29.9523C113.317 30.0765 113.341 30.1852 113.387 30.2783C113.434 30.3714 113.496 30.4568 113.573 30.5344C113.651 30.5965 113.767 30.6275 113.923 30.6275V30.8603H110.57V30.6275C110.725 30.6275 110.842 30.5965 110.919 30.5344C110.997 30.4568 111.051 30.3714 111.082 30.2783C111.129 30.1852 111.152 30.0765 111.152 29.9523V14.9127H107.986C107.365 14.9127 106.907 15.0911 106.612 15.4481C106.333 15.8051 106.147 16.2474 106.054 16.7752H105.798L106.03 14.5402H118.463L118.672 16.7752ZM129.136 30.4878C129.757 30.4878 130.207 30.3093 130.486 29.9523C130.781 29.5954 130.975 29.1608 131.068 28.6486H131.324L131.092 30.8603H119.986V30.6275C120.142 30.6275 120.258 30.5965 120.336 30.5344C120.429 30.4568 120.491 30.3714 120.522 30.2783C120.568 30.1852 120.592 30.0765 120.592 29.9523V15.4481C120.592 15.324 120.568 15.2153 120.522 15.1222C120.491 15.0446 120.429 14.9747 120.336 14.9127C120.258 14.8351 120.142 14.7962 119.986 14.7962V14.5634H131.092L131.324 16.7752H131.068C130.975 16.2474 130.781 15.8051 130.486 15.4481C130.207 15.0911 129.757 14.9127 129.136 14.9127H122.757V22.223H127.762C127.995 22.2074 128.205 22.1454 128.391 22.0367C128.546 21.9436 128.686 21.7961 128.81 21.5944C128.934 21.3926 128.996 21.1055 128.996 20.733H129.229V24.0855H128.996C128.996 23.713 128.934 23.4258 128.81 23.2241C128.686 23.0223 128.546 22.8748 128.391 22.7817C128.205 22.6731 127.995 22.611 127.762 22.5955H122.757V30.4878H129.136ZM142.459 30.4878C143.08 30.4878 143.53 30.3093 143.809 29.9523C144.104 29.5954 144.298 29.1608 144.391 28.6486H144.647L144.415 30.8603H133.309V30.6275C133.465 30.6275 133.581 30.5965 133.659 30.5344C133.752 30.4568 133.814 30.3714 133.845 30.2783C133.891 30.1852 133.915 30.0765 133.915 29.9523V15.4481C133.915 15.324 133.891 15.2153 133.845 15.1222C133.814 15.0446 133.752 14.9747 133.659 14.9127C133.581 14.8351 133.465 14.7962 133.309 14.7962V14.5634H144.415L144.647 16.7752H144.391C144.298 16.2474 144.104 15.8051 143.809 15.4481C143.53 15.0911 143.08 14.9127 142.459 14.9127H136.08V22.223H141.085C141.318 22.2074 141.528 22.1454 141.714 22.0367C141.869 21.9436 142.009 21.7961 142.133 21.5944C142.257 21.3926 142.319 21.1055 142.319 20.733H142.552V24.0855H142.319C142.319 23.713 142.257 23.4258 142.133 23.2241C142.009 23.0223 141.869 22.8748 141.714 22.7817C141.528 22.6731 141.318 22.611 141.085 22.5955H136.08V30.4878H142.459Z" fill="white"/>
</svg>
