<svg width="347" height="580" viewBox="0 0 347 580" fill="none" xmlns="http://www.w3.org/2000/svg">
<g opacity="0.8">
<path d="M-37.7052 280.45C-37.7052 280.45 -116.012 298.931 -143 314.305V582.126L125.453 582.358C125.453 582.358 47.9299 445.503 36.2671 397.221C24.6043 348.939 -10.6528 272.636 -37.7052 280.45Z" fill="black"/>
<path d="M40.6522 224.676C40.6522 224.676 14.8102 218.351 10.3118 221.985C5.8651 225.577 -0.848892 231.891 -6.2998 238.12C-11.7507 244.349 -34.5906 269.054 -37.7052 280.451C-40.8198 291.847 -27.1995 340.922 -27.1995 340.922L5.5027 345.45L-23.3059 351.027C-23.3059 351.027 -4.51489 401.22 19.9078 433.822C44.0396 466.037 109.132 566.582 125.454 582.357H141.689C141.689 582.357 116.086 467.303 103.813 435.769C91.5405 404.236 61.9529 296.397 58.8391 287.442C55.7254 278.488 41.7 237.556 40.6522 224.676Z" fill="black"/>
<path d="M29.5194 236.425C29.5194 236.425 43.862 249.257 62.3555 264.353C63.2849 265.11 64.2218 265.874 65.1717 266.642C90.5847 287.222 122.592 310.935 136.354 312.004C160.853 313.909 163.968 294.65 163.968 294.65C163.968 294.65 75.3151 214.781 46.8369 177.891C44.2359 174.521 42.1387 171.514 40.6546 168.955C40.6546 168.955 40.7269 172.749 40.7146 178.314C40.6915 191.32 40.2166 214.002 37.3066 220.514C33.1525 229.814 29.5194 236.425 29.5194 236.425Z" fill="#FDB97A"/>
<path d="M29.5192 236.425C29.5192 236.425 43.8619 249.257 62.3554 264.352C63.2848 265.11 64.2216 265.874 65.1716 266.642L58.6409 231.2L46.8368 177.891L40.7136 178.314C40.6906 191.32 40.2156 214.002 37.3057 220.514C33.1523 229.814 29.5192 236.425 29.5192 236.425Z" fill="#EF3136"/>
<path d="M62.3548 264.352C88.1695 285.421 122.077 310.895 136.353 312.004C160.852 313.909 163.967 294.65 163.967 294.65C163.967 294.65 75.3143 214.781 46.8361 177.891C45.5254 178.765 44.4636 180.1 43.6829 181.94C43.6829 181.94 42.1955 224.068 62.3548 264.352Z" fill="black"/>
<path d="M55.4738 119.245C55.4738 119.245 43.0155 108.678 36.267 107.473C29.5185 106.267 23.8087 121.406 22.77 131.746C21.732 142.085 28.4797 167.521 39.1219 178.422C49.7632 189.323 58.069 178.886 58.5884 170.608C59.1077 162.331 55.4738 119.245 55.4738 119.245Z" fill="#EF3136"/>
<path d="M42.6629 110.127L45.6115 165.575C45.6115 165.575 46.974 172.464 49.1937 182.067C53.2533 199.629 60.1834 226.268 66.895 236.425C77.2774 252.136 105.828 281.125 122.44 291.287C123.856 292.154 125.287 292.94 126.719 293.646C126.722 293.648 126.724 293.646 126.724 293.646C126.727 293.651 126.729 293.651 126.729 293.651C142.077 301.222 157.795 299.823 163.968 294.65C170.716 288.992 172.274 282.843 176.945 271.903C181.617 260.96 197.709 230.523 204.458 216.154C211.206 201.783 210.169 183.154 215.359 177.416C220.55 171.675 231.451 163.333 229.894 156.343C228.337 149.353 167.602 137.058 167.602 137.058L55.4754 104.853L42.6629 110.127Z" fill="#FDB97A"/>
<path d="M186.665 203.34C186.665 203.34 188.872 215.83 189.576 217.355C192.064 222.741 190.182 225.913 190.182 225.913C190.182 225.913 196.647 215.713 201.67 221.939C201.026 217.309 193.356 210.148 186.665 203.34Z" fill="#EF3136"/>
<path d="M49.1929 182.067C53.2526 199.629 60.1827 226.268 66.8942 236.425C77.2767 252.136 105.827 281.125 122.439 291.287C123.856 292.154 125.286 292.94 126.719 293.646C126.721 293.648 126.724 293.646 126.724 293.646C126.438 293.319 113.301 281.446 103.812 265.657C94.2088 249.681 98.3506 237.696 87.9583 231.201C66.4152 217.736 59.1078 191.66 58.6402 175.347C58.1702 159.035 58.6402 123.803 58.6402 123.803L55.4739 119.245C55.4739 119.245 41.6539 99.9771 42.6622 113.795C44.305 136.289 40.6538 168.955 49.1929 182.067Z" fill="#EF3136"/>
<path d="M39.3643 173.197C39.7374 175.654 41.4689 177.429 43.2316 177.161C44.9944 176.893 46.1211 174.685 45.748 172.229C45.3749 169.772 43.6442 167.997 41.8815 168.265C40.1179 168.532 38.9912 170.741 39.3643 173.197Z" fill="white"/>
<path d="M51.7388 121.34C51.7388 121.34 49.1666 140.982 65.1709 145.258C88.8154 151.575 100.883 171.428 111.395 191.007C121.906 210.585 145.749 211.841 170.079 207.413C189.253 203.922 198.576 216.466 201.67 221.939C202.708 219.822 203.65 217.872 204.457 216.154C211.206 201.783 210.168 183.154 215.358 177.416C220.549 171.675 231.45 163.333 229.893 156.343C228.336 149.353 167.601 137.058 167.601 137.058L70.4813 109.164C64.4724 108.03 60.9741 107.405 60.9741 107.405L58.641 114.2L51.7388 121.34Z" fill="#EF3136"/>
<path d="M51.0633 319.1C58.503 333.725 65.9689 350.727 73.2401 368.92C74.6248 372.381 76.0029 375.885 77.3729 379.428C83.8798 396.248 90.1944 413.856 96.1688 431.37C98.1238 437.107 100.047 442.836 101.919 448.521C124.996 518.426 141.647 582.358 141.647 582.358H174.022C179.804 536.646 175.038 460.072 169.947 403.229C169.496 398.203 169.044 393.331 168.594 388.648C167.981 382.24 167.376 376.185 166.801 370.577C165.958 362.43 165.171 355.222 164.5 349.227C163.147 337.173 162.246 330.025 162.246 330.025L51.0633 319.1Z" fill="#4E2FCB"/>
<path d="M73.2391 368.92C74.6238 372.381 76.0019 375.885 77.3719 379.428C90.3298 393.039 109.11 408.58 126.723 407.75C148.253 406.733 162.117 395.466 168.593 388.649C171.464 385.629 172.884 383.482 172.884 383.482L170.078 367.466C170.078 367.466 168.938 368.71 166.799 370.576C161.084 375.565 148.238 385.003 130.958 387.069C109.115 389.684 86.6383 377.831 73.2391 368.92Z" fill="#35069D"/>
<path d="M93.8629 424.66C96.1663 431.37 97.256 434.573 99.7066 441.858C102.144 445.422 104.876 448.538 107.292 451.496C118.728 465.502 130.037 472.764 140.904 473.078C141.084 473.083 141.263 473.085 141.442 473.085C146.402 473.085 150.752 471.069 154.378 467.085C163.776 456.755 168.373 432.98 168.038 396.416C168.038 396.297 168.036 396.178 168.036 396.058C167.763 368.958 164.768 344.477 164.74 344.233C164.605 343.153 163.668 342.371 162.593 342.416C162.535 342.418 162.479 342.421 162.421 342.429C161.285 342.569 160.477 343.605 160.617 344.744C160.646 344.985 163.615 369.263 163.882 396.135C164.23 431.297 159.883 454.864 151.304 464.288C148.36 467.525 144.997 469.046 141.024 468.926C126.539 468.507 110.15 453.366 93.8629 424.66Z" fill="#F69522"/>
<path d="M34.6069 226.36L29.5193 236.952C29.5193 236.952 22.511 232.15 23.4199 229.165C24.328 226.18 32.167 224.202 34.6069 226.36Z" fill="black"/>
<path d="M34.6069 226.359C34.6069 226.359 27.962 225.402 26.145 228.517C24.328 231.631 29.5193 236.426 29.5193 236.426C29.5193 236.426 107.126 303.268 131.004 304.566C154.883 305.863 166.218 293.392 168.383 289.979L173.163 281.031C173.163 281.031 175.091 281.725 173.163 289.252C171.235 296.778 167.082 307.939 163.968 314.428C160.853 320.917 160.32 330.241 160.593 335.192C160.838 339.61 150.819 358.974 121.517 357.518C70.3834 354.978 51.0624 319.1 51.0624 319.1C51.0624 319.1 17.5804 251.276 16.0231 240.545C14.4658 229.814 12.3891 223.584 19.657 221.249C26.9249 218.912 37.3065 220.514 37.3065 220.514L34.6069 226.359Z" fill="#4E2FCB"/>
<path d="M190.182 225.913C190.182 225.913 187.371 225.751 183.557 228.548C179.743 231.344 175.396 237.398 169.548 234.745C163.7 232.092 167.573 227.338 159.437 225.304C151.3 223.27 150.031 219.896 151.302 217.862C152.574 215.828 156.859 215.835 161.691 218.631C166.522 221.428 167.86 227.806 177.32 227.91C183.173 227.975 193.232 220.859 190.182 225.913Z" fill="#EF3136"/>
<path d="M163.265 224.676C163.265 224.676 159.418 218.638 156.556 219.353C153.695 220.069 155.218 222.219 156.111 222.551C157.647 223.121 159.082 222.749 159.082 222.749C159.082 222.749 160.812 222.837 163.265 224.676Z" fill="black"/>
<path d="M186.665 181.484C186.761 186.926 187.126 201.911 188.24 206.235C188.478 207.164 188.853 208.209 189.309 209.295C194.194 215.816 202.123 219.979 211.403 219.979C227.781 219.979 242.167 207.008 243.527 191.006C244.89 175.005 232.717 162.034 216.335 162.034C203.373 162.035 191.658 170.159 186.665 181.484Z" fill="black"/>
<path d="M190.913 194.174C190.932 194.207 190.947 194.24 190.966 194.273C196.072 203.026 208.475 204.069 217.288 201.7C222.992 200.167 228.19 197.31 233.268 194.366C235.112 193.297 237.25 192.462 239.385 192.18C238.215 205.512 226.142 216.349 212.439 216.349C205.852 216.349 199.925 213.845 195.749 209.299C194.617 208.066 193.649 206.719 192.856 205.282C192.026 201.609 191.309 197.909 190.913 194.174Z" fill="#4E2FCB"/>
<path d="M118.979 200.846C109.641 188.005 113.432 169.334 127.446 159.144C141.459 148.954 160.389 151.104 169.727 163.946C179.064 176.788 175.273 195.458 161.26 205.648C147.246 215.838 128.316 213.688 118.979 200.846Z" fill="black"/>
<path d="M119.314 184.264C124.667 193.441 137.672 194.535 146.912 192.051C152.893 190.443 158.343 187.448 163.666 184.361C165.599 183.24 167.842 182.364 170.08 182.069C168.853 196.048 156.195 207.411 141.828 207.411C134.922 207.411 128.707 204.785 124.328 200.018C120.117 195.432 118.092 189.352 118.619 182.886C118.82 183.352 119.05 183.812 119.314 184.264Z" fill="#4E2FCB"/>
<path d="M191.342 179.02C191.342 179.02 183.687 172.848 173.173 176.507L172.883 182.242C172.883 182.242 181.13 178.565 190.207 184.49L191.342 179.02Z" fill="black"/>
<path d="M123.477 166.311C116.036 158.998 79.2655 123.61 72.9936 123.008C63.52 122.1 54.5231 118.459 54.5231 118.459L36.2671 107.473C36.2671 107.473 50.9204 103.544 55.4739 104.853C60.0275 106.16 75.2864 115.487 88.5237 127.426C101.761 139.366 127.976 162.035 127.976 162.035L123.477 166.311Z" fill="black"/>
<path d="M182.113 255.646C182.113 255.646 179.535 255.457 175.029 259.582C170.523 263.707 165.79 264.194 160.891 263.282C155.02 262.19 152.251 256.02 146.471 254.22C136.236 251.031 133.679 246.908 133.679 246.908C133.679 246.908 167.409 245.953 172.776 247.932C178.142 249.912 182.113 255.646 182.113 255.646Z" fill="#F69522"/>
<path d="M182.113 255.647C182.113 255.647 178.183 244.976 176.171 243.95C172.962 242.315 169.903 244.029 168.07 243.928C166.238 243.826 164.81 240.332 161.278 239.824C154.869 238.904 133.678 246.909 133.678 246.909C133.678 246.909 137.843 250.455 144.69 249.967C152.847 249.386 157.544 247.225 162.156 249.952C166.302 252.403 167.381 252.502 171.321 251.376C175.262 250.248 182.113 255.647 182.113 255.647Z" fill="#C97116"/>
<path d="M45.7587 166.311C46.2156 168.056 48.8363 168.144 48.8552 166.311C48.9752 154.752 46.8615 135.761 45.9625 128.885C44.6435 118.796 35.8792 113.644 31.5673 119.896C27.2882 126.098 30.7479 141.158 32.6126 141.121C35.8496 141.057 31.2558 122.812 36.1372 123.009C44.8802 123.363 39.6479 129.885 38.0388 144.333C37.0461 153.248 43.6582 144.552 43.6582 157.141C43.6582 159.547 44.9665 163.282 45.7587 166.311Z" fill="black"/>
<path d="M36.267 107.474C36.267 107.474 88.8161 107.584 129.693 109.919C135.13 110.228 140.202 110.466 144.949 110.656C175.893 111.915 193.042 111.31 207.553 117.174C224.294 123.932 235.195 129.453 235.195 129.453C235.195 129.453 253.88 70.208 232.081 41.4002C210.279 12.59 175.566 3.04663 150.877 0.523749C126.189 -2.0016 77.9151 4.41737 60.7841 23.8806C43.654 43.3471 36.2752 103.862 36.267 107.474Z" fill="white"/>
<path d="M36.2662 107.473C36.2662 107.473 88.8161 107.584 129.692 109.921C135.131 110.229 140.202 110.468 144.951 110.658L151.205 110.32L170.079 109.296C141.679 106.191 103.232 80.3125 107.905 43.1324C112.577 5.95473 150.877 0.52518 150.877 0.52518C138.2 -0.771599 119.3 0.290966 101.595 4.26677C101.595 4.26677 101.595 4.26677 101.592 4.26677C84.8198 8.03384 69.1171 14.4142 60.7842 23.8828C43.6532 43.3452 36.276 103.86 36.2662 107.473Z" fill="#4E2FCB"/>
<path d="M36.2662 107.474C36.2662 107.474 88.8161 107.584 129.692 109.921C135.131 110.229 140.202 110.468 144.951 110.658L151.205 110.32C157.286 109.5 160.884 108.965 160.884 108.965C160.884 108.965 96.6708 107.746 71.9481 72.1005C47.3422 36.6232 101.085 4.56939 101.592 4.26697C84.8198 8.03404 69.1171 14.4144 60.7841 23.883C43.6532 43.3454 36.276 103.86 36.2662 107.474Z" fill="#35069D"/>
<path d="M60.9734 107.405C60.9734 107.405 125.964 160.293 150.878 162.033C175.789 163.776 208.352 152.466 218.994 152.727C222.632 152.814 225.869 153.108 228.781 153.585C228.781 153.585 228.783 153.585 228.786 153.585C245.644 156.329 251.562 165.135 261.301 175.347C268.464 182.86 274.72 185.123 277.138 182.714C277.327 182.527 277.491 182.31 277.633 182.07C279.578 178.694 276.464 174.153 269.845 164.672C268.008 162.041 264.521 158.155 260.439 153.914C249.825 142.884 235.197 129.452 235.197 129.452C235.197 129.452 208.611 112.755 189.147 110.419C184.278 109.834 173.823 109.354 160.885 108.964C122.096 107.786 60.9734 107.405 60.9734 107.405Z" fill="#4E2FCB"/>
<path d="M60.9734 107.405C60.9734 107.405 125.964 160.293 150.878 162.033C175.789 163.776 208.352 152.466 218.994 152.727C222.632 152.814 225.869 153.108 228.781 153.585C228.781 153.585 228.783 153.585 228.786 153.585C245.644 156.329 251.562 165.135 261.301 175.347C268.464 182.86 274.72 185.123 277.138 182.714C277.327 182.527 277.491 182.31 277.633 182.07C279.578 178.694 276.464 174.153 269.845 164.672C268.008 162.041 264.521 158.155 260.439 153.914C222.547 129.453 197.88 144.676 177.515 144.351C146.338 143.853 136.355 140.526 131.238 127.911C126.868 117.14 178.368 111.923 178.368 111.923C172.992 110.714 167.091 109.741 160.885 108.964C122.096 107.786 60.9734 107.405 60.9734 107.405Z" fill="#35069D"/>
<path d="M228.785 153.584C245.643 156.329 251.561 165.134 261.299 175.347C268.462 182.861 274.72 185.125 277.136 182.714C277.136 182.714 271.299 169.272 255.788 160.384C242.812 152.95 229.123 153.568 228.785 153.584Z" fill="black"/>
<path d="M174.019 278.975C174.019 278.975 184.585 287.154 188.868 298.783C193.15 310.413 208.334 313.384 224.295 319.1C240.257 324.817 283.859 334.448 290.088 340.922C296.317 347.396 311.501 395.767 320.844 428.226C330.187 460.685 325.126 505.456 331.355 521.028C337.584 536.6 346.149 582.357 346.149 582.357H174.02C174.02 582.357 167.846 403.457 160.059 364.137C152.272 324.816 174.019 278.975 174.019 278.975Z" fill="black"/>
<path d="M160.059 364.138C167.845 403.457 174.02 582.125 174.02 582.125H212.615C209.89 569.643 235.196 461.854 238.7 425.646C242.205 389.441 235.586 359.076 235.586 359.076L205.608 340.923L227.411 338.442L210.62 314.459C200.318 310.874 191.888 306.979 188.87 298.782C184.587 287.154 174.021 278.975 174.021 278.975C174.021 278.975 152.272 324.815 160.059 364.138Z" fill="black"/>
</g>
</svg>
