<svg width="290" height="627" viewBox="0 0 290 627" fill="none" xmlns="http://www.w3.org/2000/svg">
<g opacity="0.8">
<path d="M156.567 256.284C152.13 247.066 146.515 240.371 140.428 237.042C139.487 238.506 138.065 240.63 137.206 241.592C142.564 244.184 147.569 250.011 151.712 258.619C157.774 271.214 161.111 288.018 161.111 305.937C161.111 323.857 157.774 340.661 151.712 353.255C145.953 365.223 138.528 371.813 130.805 371.813C123.081 371.813 115.656 365.223 109.896 353.255C103.835 340.661 100.497 323.856 100.497 305.937C100.497 288.018 103.835 271.213 109.896 258.619C115.268 247.458 122.088 240.977 129.247 240.153C132.03 240.164 133.127 235.975 132.032 234.717C131.624 234.691 131.215 234.675 130.804 234.675C120.898 234.675 111.749 242.349 105.042 256.284C98.6369 269.592 95.1094 287.225 95.1094 305.937C95.1094 324.649 98.6369 342.283 105.042 355.591C111.748 369.526 120.897 377.2 130.804 377.2C140.71 377.2 149.859 369.526 156.566 355.591C162.97 342.283 166.497 324.649 166.497 305.937C166.499 287.225 162.971 269.592 156.567 256.284Z" fill="white"/>
<path d="M158.889 301.517C158.889 301.517 142.616 306.861 138.063 321.17C133.509 335.479 57.1936 331.577 38.1149 337.431C19.0362 343.285 18.386 388.814 19.0362 405.074C19.6864 421.335 29.8793 495.792 29.8793 495.792C29.8793 495.792 4.07676 541.662 11.2319 586.54C18.386 631.418 0 670.757 0 670.757H79.076L167.176 381.008L158.889 301.517Z" fill="#030202"/>
<path d="M257.252 314.81C198.448 352.007 172.724 341.545 162.66 332.127C158.446 328.177 156.977 324.415 156.977 324.415C156.977 324.415 160.038 310.254 158.889 301.517C157.74 292.778 150.875 288.104 150.875 288.104C153.691 281.838 157.151 275.954 161.17 270.529C173.108 254.413 189.97 242.348 209.473 236.351L255.721 222.133C247.302 258.397 257.252 314.81 257.252 314.81Z" fill="#F4B37E"/>
<path d="M226.901 233.977C226.901 233.977 211.929 311.171 162.659 332.128C158.445 328.178 156.976 324.416 156.976 324.416C156.976 324.416 160.037 310.255 158.888 301.518C157.738 292.779 150.874 288.105 150.874 288.105C153.69 281.839 157.15 275.955 161.169 270.529L226.901 233.977Z" fill="#030202"/>
<path d="M263.375 417.44C263.372 417.494 263.372 417.551 263.372 417.604C263.366 417.772 263.36 417.942 263.357 418.11C263.354 418.158 263.354 418.203 263.354 418.251C262.786 438.616 261.717 457.516 259.79 470.369C253.439 512.693 242.436 670.758 242.436 670.758H79.0739C79.0739 670.758 97.2722 611.726 95.581 599.452C93.8871 587.179 64.9015 560.749 71.3621 530.892C76.5694 506.826 92.8132 468.231 108.997 431.138C109.467 430.064 109.937 428.989 110.403 427.915C126.751 390.517 142.704 355.133 146.79 338.329C146.79 338.329 147.986 312.925 153.562 309.971C159.137 307.02 159.005 309.971 159.005 309.971C159.005 309.971 167.103 321.358 184.456 323.494C201.807 325.631 236.087 312.087 242.434 306.162C248.784 300.239 250.451 294.643 254.695 296.382C258.941 298.12 264.019 300.662 263.597 310.396C263.442 313.966 263.741 330.749 263.87 352.663C263.882 354.366 263.891 356.102 263.898 357.864C263.906 359.776 263.913 361.725 263.918 363.7C263.921 365.429 263.924 367.183 263.927 368.951C263.937 384.495 263.812 401.4 263.375 417.44Z" fill="#E13742"/>
<path d="M263.929 368.951C249.34 378.803 216.715 392.979 191.562 390.39C172.554 388.433 151.396 381.774 138.929 373.41C137.429 372.401 138.546 370.071 140.27 370.624C154.879 375.301 172.198 382.292 194.633 383.355C216.99 384.411 249.472 369.326 263.92 363.7C263.922 365.429 263.925 367.183 263.929 368.951Z" fill="#BA0F16"/>
<path d="M263.917 417.174C263.917 417.177 263.914 417.18 263.911 417.186C263.737 417.539 263.551 417.896 263.354 418.252C262.675 419.473 261.861 420.712 260.921 421.957C243.624 444.919 184.027 471.02 155.08 465.001C151.902 464.34 148.825 463.361 145.863 462.135C129.29 455.288 116.255 440.747 108.998 431.138C109.468 430.064 109.938 428.989 110.404 427.915C120.546 435.226 139.48 446.888 160.2 449.641C189.392 453.517 256.653 420.76 263.375 417.441C263.707 417.279 263.893 417.185 263.917 417.174Z" fill="#BA0F16"/>
<path d="M263.919 417.172C263.919 417.172 220.661 491.967 157.501 492.926C132.912 493.3 108.302 469.929 115.383 469.821C131.088 469.58 157.886 486.191 160.479 477.105C163.072 468.019 145.097 462.138 145.097 462.138C184.709 462.233 224.318 448.68 263.919 417.172Z" fill="#BA0F16"/>
<path d="M109.612 597.408C106.434 597.336 105.511 593.025 108.385 591.665C120.353 586 142.673 578.157 177.514 579.978C209.136 581.629 271.679 605.319 271.679 605.319L265.658 611.904C265.658 611.904 206.36 595.003 167.176 597.076C148.491 598.064 123.955 597.739 109.612 597.408Z" fill="#BA0F16"/>
<path d="M283.803 118.922C276.638 118.776 269.745 117.245 263.973 114.224C222.023 92.2685 219.781 60.0092 219.781 60.0092C219.781 60.0092 210.032 7.99841 255.52 0.82256C278.207 -2.76537 296.428 5.71655 309.735 19.7946C310.271 20.3599 310.807 20.945 311.315 21.53C323.774 35.5298 331.642 54.5009 334.528 72.6443C339.207 102.164 309.628 119.469 283.803 118.922Z" fill="#4D4192"/>
<path d="M283.803 118.922C279.855 107.945 269.326 82.6944 250.208 63.2448C250.89 63.7421 276.579 82.4216 301.585 75.6846C325.48 69.2505 319.874 32.6521 311.315 21.5288C323.774 35.5285 331.642 54.4996 334.528 72.6431C339.207 102.164 309.628 119.468 283.803 118.922Z" fill="#3F2B88"/>
<path d="M73.9055 113.813C73.9055 113.813 64.4865 104.384 73.9055 91.8154C83.3245 79.2473 104.421 60.0761 123.722 60.011C123.722 60.011 99.9467 105.737 73.9055 113.813Z" fill="#4D4192"/>
<path d="M231.067 228.666C208.943 259.941 134.186 301.896 110.922 301.514C87.655 301.134 88.0372 288.547 87.655 281.655C87.2747 274.763 89.5613 276.723 82.6959 268.332C75.8305 259.941 79.2637 254.219 79.2637 254.219C79.2637 254.219 76.9743 252.313 75.068 250.023C73.1618 247.734 73.9252 245.447 76.2137 241.548C78.5003 237.651 72.3983 228.283 72.3983 228.283C67.8167 228.014 64.1872 225.649 64.1033 222.265C64.0674 220.861 64.6449 219.281 66.0152 217.602C69.3606 213.511 72.9428 198.48 74.7113 187.745C74.9444 186.33 75.1483 184.986 75.3125 183.756C75.6446 181.275 75.8305 179.241 75.8305 177.935C75.8305 176.933 75.6692 175.93 75.3851 174.937C74.7802 172.798 73.6166 170.688 72.3266 168.686C70.1033 165.239 67.4996 162.102 66.6767 159.631C65.1508 155.052 66.2964 150.477 69.7286 127.589C73.1608 104.705 97.5714 78.7682 97.5714 78.7682C152.114 32.6197 231.067 52.8346 255.857 93.2643C280.651 133.694 253.189 197.388 231.067 228.666Z" fill="#F4B37E"/>
<path d="M75.3843 174.937C74.7794 172.798 73.6158 170.688 72.3258 168.686L74.7105 167.899C74.7105 167.899 76.1714 171.322 75.3843 174.937Z" fill="#E13742"/>
<path d="M173.574 170.624C169.004 169.715 131.325 173.291 126.929 176.903C122.533 180.512 124.729 214.837 109.943 217.823C97.3807 220.361 79.7393 195.337 74.7113 187.745C74.9444 186.329 75.1482 184.986 75.3124 183.756C84.5238 177.613 119.235 169.287 119.235 169.287L169.791 164.939L173.574 170.624Z" fill="#E13742"/>
<path d="M90.4796 204.315C90.4796 204.315 84.9429 205.811 85.093 208.504C85.243 211.198 94.0817 216.883 93.4031 219.577C92.7246 222.27 88.0609 223.1 88.0609 223.1C88.0609 223.1 92.7652 227.805 95.1122 226.662C97.4591 225.519 105.649 218.845 101.064 213.708C96.4786 208.57 90.4796 204.315 90.4796 204.315Z" fill="#E13742"/>
<path d="M78.302 175.267C78.302 175.267 83.0799 166.609 92.0913 159.726C101.103 152.844 112.23 148.254 118.609 147.905C124.988 147.556 123.722 179.577 123.722 179.577L78.302 175.267Z" fill="#E13742"/>
<path d="M285.597 176.9C283.53 184.007 281.054 189.945 278.422 195.043C267.493 216.16 253.795 222.926 255.238 239.528C257.032 260.138 225.163 243.828 221.575 220.79C217.987 197.743 214.516 188.414 188.886 182.515C157.386 175.262 158.986 152.156 150.874 129.967C149.841 127.13 148.866 124.449 147.882 121.924C147.872 121.915 147.872 121.904 147.872 121.904C140.785 103.703 132.878 93.3396 92.2442 84.9454C92.2442 84.9454 87.3596 62.6393 133.6 49.1766C179.829 35.7034 234.59 47.3732 257.481 75.6547C280.372 103.938 296.194 140.341 285.597 176.9Z" fill="#4D4192"/>
<path d="M255.238 239.528C257.032 260.137 225.163 243.827 221.575 220.79C217.987 197.743 214.516 188.414 188.886 182.515C157.387 175.261 158.986 152.156 150.874 129.967C149.841 127.13 148.866 124.449 147.882 121.924C148.35 122.616 163.606 144.903 192.718 146.277C222.296 147.661 232.045 135.134 247.643 146.277C263.242 157.411 255.764 193.989 275.584 195.032C276.569 195.081 277.514 195.09 278.421 195.041C267.493 216.159 253.795 222.926 255.238 239.528Z" fill="#3F2B88"/>
<path d="M220.633 52.3246C242.37 61.6747 260.803 77.9865 272.8 98.3788C276.13 104.038 278.956 109.975 281.199 116.147C281.751 117.665 283.233 118.69 284.881 118.237C286.345 117.835 287.526 116.082 286.971 114.556C278.494 91.2378 262.544 71.0239 241.983 57.1582C236.2 53.2589 230.061 49.9116 223.654 47.156C222.17 46.518 220.445 46.7153 219.559 48.2299C218.821 49.4916 219.14 51.6819 220.633 52.3246Z" fill="white"/>
<path d="M199.027 218.367C197.539 227.9 204.669 243.545 215.428 238.582C227.844 232.854 226.107 229.047 230.335 215.316C234.564 201.585 246.322 197.008 248.992 188.998C251.662 180.988 250.899 161.537 236.405 157.341C221.912 153.145 210.468 175.267 210.468 175.267C210.468 175.267 204.468 183.52 199.027 218.367Z" fill="#F4B37E"/>
<path d="M195.623 214.493C163.948 220.791 166.503 239.528 166.503 239.528C157.563 206.313 188.789 212.992 188.886 198.173C188.994 183.345 173.57 176.364 173.57 176.364L205.538 184.329C205.538 184.329 210.753 211.49 195.623 214.493Z" fill="#4D4192"/>
<path d="M195.623 214.493C163.948 220.791 166.503 239.528 166.503 239.528C157.563 206.313 188.789 212.992 188.886 198.173C188.994 183.345 173.57 176.364 173.57 176.364L205.538 184.329C205.538 184.329 210.753 211.49 195.623 214.493Z" fill="#3F2B88"/>
<path d="M226.624 228.378C226.624 228.378 219.185 243.134 209.821 243.476C203 243.725 199.242 232.289 197.82 223.107C197.656 222.045 196.107 222.1 196.01 223.17C195.261 231.435 195.174 243.414 199.954 248.962C207.639 257.882 224.136 240.659 226.902 233.977C229.667 227.296 226.624 228.378 226.624 228.378Z" fill="#E13742"/>
<path d="M216.557 185.522C216.557 185.522 224.76 168.141 232.972 169.348C241.184 170.556 240.929 191.734 238.509 190.187C236.198 188.709 238.13 180.088 233.175 178.38C228.219 176.672 222.429 188.354 222.494 190.642C222.559 192.93 229.041 196.643 224.904 200.725C220.768 204.806 217.496 198.962 216.944 202.576C216.392 206.19 213.917 211.167 215.933 213.073C217.95 214.978 224.316 204.33 226.079 205.262C227.842 206.193 222.628 218.444 217.127 220.563C211.626 222.681 204.166 209.819 216.557 185.522Z" fill="#030202"/>
<path d="M77.0537 172.632C77.0537 172.632 42.4484 171.996 38.5576 179.477C34.5988 187.091 58.3308 218.109 64.0996 218.396C71.1264 218.743 78.9128 172.484 77.0537 172.632Z" fill="#030202"/>
<path d="M46.239 193.343C43.6458 189.552 40.4533 181.971 44.4432 180.745C48.4331 179.519 70.9138 176.902 70.9138 176.902C70.9138 176.902 72.5058 185.658 69.1519 188.531C67.0645 190.318 68.5725 184.949 64.5967 184.144C60.6209 183.339 50.5763 184.128 47.9509 186.308C45.3246 188.487 46.239 193.343 46.239 193.343Z" fill="#4D4192"/>
<path d="M73.8413 181.274C73.6016 180.66 70.2939 171.074 84.0662 169.287C97.8385 167.502 113.697 162.076 120.166 164.58C126.635 167.084 117.663 213.201 108.481 214.453C99.2984 215.704 77.1801 189.83 73.8413 181.274Z" fill="#030202"/>
<path d="M109.941 169.288L111.361 164.245C111.361 164.245 150.424 156.442 168.996 158.32C187.568 160.198 214.261 169.288 214.261 169.288L210.469 175.267C210.469 175.267 176.53 167.881 170.363 166.648C164.196 165.416 115.158 174.389 115.158 174.389L109.941 169.288Z" fill="#030202"/>
<path d="M84.4937 185.911C84.4937 185.911 78.0237 177.342 80.886 175.267C83.7482 173.193 111.833 168.922 115.004 169.86C118.175 170.799 114.959 189.6 113.825 191.472C112.689 193.343 109.795 180.499 101.85 180.698C101.85 180.698 90.1795 179.576 84.4937 185.911Z" fill="#4D4192"/>
<path d="M95.9162 226.26C88.5035 230.249 79.2421 227.16 72.3975 228.283C67.8159 228.014 64.1864 225.649 64.1024 222.265C64.2251 222.053 67.7894 215.963 73.3251 218.399C78.9571 220.873 87.3362 224.866 92.7228 222.271C98.1103 219.676 99.1541 224.518 95.9162 226.26Z" fill="#E13742"/>
<path d="M74.4462 226.013C73.092 225.833 72.0586 224.68 73.0183 223.101C74.8255 220.129 79.8063 224.881 81.4635 225.626C81.4635 225.626 79.141 225.368 77.5924 224.852C76.0438 224.336 77.1074 226.141 74.4462 226.013Z" fill="#030202"/>
<path d="M77.0537 161.621C77.0537 161.621 67.6554 155.87 66.0247 155.853C64.394 155.836 63.8656 159.626 66.0247 162.419C68.1839 165.212 71.3887 167.224 72.6438 169.288C73.8999 171.352 78.1427 167.606 77.0537 161.621Z" fill="#030202"/>
<path d="M84.3446 166.011C84.3446 166.011 78.758 162.572 82.3497 159.402C85.9404 156.232 105.616 146.118 114.793 144.522C123.97 142.926 139.624 147.744 141.819 149.324C144.014 150.905 123.27 147.513 118.66 148.867C99.641 154.452 93.9203 165.219 84.3446 166.011Z" fill="#030202"/>
<path d="M75.5937 242.635C76.4335 241.708 81.152 240.256 85.5411 242.635C89.9303 245.014 106.82 251.398 113.239 250.4C113.239 250.4 101.296 255.388 94.4166 254.191C87.5371 252.995 85.7412 252.795 83.3471 252.995C80.9529 253.194 79.2637 254.22 79.2637 254.22C79.2637 254.22 69.437 249.433 75.5937 242.635Z" fill="#030202"/>
<path d="M79.3561 252.596C79.3561 252.596 76.7534 259.047 79.7242 263.69C82.6949 268.333 88.2948 266.604 93.4011 263.69C98.5084 260.776 111.919 250.919 111.919 250.919L79.3561 252.596Z" fill="#030202"/>
<path d="M241.251 250.26C236.815 241.042 231.2 234.347 225.113 231.018C224.171 232.483 222.75 234.607 221.89 235.568C227.248 238.161 232.254 243.987 236.397 252.595C242.458 265.19 245.796 281.994 245.796 299.913C245.796 317.833 242.458 334.637 236.397 347.231C230.637 359.199 223.211 365.79 215.488 365.79C207.765 365.79 200.34 359.199 194.58 347.231C188.519 334.637 185.181 317.833 185.181 299.913C185.181 281.994 188.519 265.189 194.58 252.595C199.952 241.434 206.772 234.953 213.931 234.129C216.715 234.141 217.811 229.952 216.717 228.694C216.308 228.667 215.899 228.651 215.488 228.651C205.582 228.651 196.433 236.325 189.726 250.26C183.321 263.568 179.794 281.202 179.794 299.913C179.794 318.625 183.321 336.26 189.726 349.568C196.433 363.502 205.581 371.176 215.488 371.176C225.395 371.176 234.543 363.502 241.25 349.568C247.655 336.26 251.182 318.625 251.182 299.913C251.183 281.202 247.656 263.568 241.251 250.26Z" fill="white"/>
<path d="M254.698 296.382C254.698 296.382 262.944 290.969 270.749 301.517C278.554 312.064 302.619 330.926 324.734 335.478C346.848 340.031 417.093 345.958 424.899 358.929C432.704 371.901 448.964 670.63 448.964 670.63H361.158L358.465 598.136C358.465 598.136 350.478 651.762 348.8 670.63H242.437C242.437 670.63 255.321 504.814 257.252 420.888C258.19 380.114 254.698 296.382 254.698 296.382Z" fill="#030202"/>
</g>
</svg>
